<?xml version="1.0" encoding="UTF-8" standalone="no"?>
<!-- Created with Inkscape (http://www.inkscape.org/) -->

<svg
   width="404.84668"
   height="511.99994"
   viewBox="0 0 404.84668 511.99994"
   version="1.1"
   id="svg1"
   xml:space="preserve"
   sodipodi:docname="bing.svg"
   inkscape:version="1.4.3 (0d15f75042, 2025-12-25)"
   xmlns:inkscape="http://www.inkscape.org/namespaces/inkscape"
   xmlns:sodipodi="http://sodipodi.sourceforge.net/DTD/sodipodi-0.dtd"
   xmlns="http://www.w3.org/2000/svg"
   xmlns:svg="http://www.w3.org/2000/svg"><sodipodi:namedview
     id="namedview1"
     pagecolor="#ffffff"
     bordercolor="#000000"
     borderopacity="0.25"
     inkscape:showpageshadow="2"
     inkscape:pageopacity="0.0"
     inkscape:pagecheckerboard="0"
     inkscape:deskcolor="#d1d1d1"
     inkscape:zoom="0.42285161"
     inkscape:cx="63.852186"
     inkscape:cy="607.77822"
     inkscape:window-width="1912"
     inkscape:window-height="1019"
     inkscape:window-x="0"
     inkscape:window-y="0"
     inkscape:window-maximized="1"
     inkscape:current-layer="svg1" /><defs
     id="defs1" /><path
     style="stroke-width:1; fill:#ffffff"
     d="M 114.23891,511.46749 C 109.76495,509.80822 5.0759,446.37847 2.7558,443.92133 L 0,441.00283 V 223.6408 6.2787 L 2.5323,3.2693 c 4.8541,-5.7689 3.4856,-6.1529 63.72547,17.8802 44.34874,17.6934 56.05042,22.7392 58.25262,25.1191 l 2.75576,2.9781 v 142.4909 142.49113 l -27.75454,27.81958 c -15.26492,15.3007 -27.55312,28.01358 -27.30711,28.25078 0.39122,0.37699 193.65269,-106.56156 194.98137,-107.89023 0.28149,-0.28139 -15.18956,-6.71134 -34.3801,-14.28869 -19.19053,-7.57724 -35.88304,-14.66757 -37.09447,-15.75615 -1.39793,-1.25613 -10.31598,-22.25842 -24.40945,-57.48532 -18.70252,-46.7471 -22.10754,-56.0355 -21.57763,-58.8604 0.72371,-3.8575 2.91139,-6.1518 7.33684,-7.6945 2.85067,-0.9938 13.0987,2.5464 123.19274,42.5562 96.2057,34.9625 120.53177,44.1533 122.33815,46.2216 l 2.25471,2.5815 v 57.45353 c 0,53.25678 -0.12816,57.60567 -1.75366,59.53501 -1.6728,1.98535 -268.51936,166.71745 -279.68652,172.65848 -5.43817,2.89325 -6.47674,3.13536 -9.16757,2.13737 z"
     id="path3" /></svg>
