<?xml version="1.0" encoding="UTF-8" standalone="no"?>
<!-- Created with Inkscape (http://www.inkscape.org/) -->

<svg
   viewBox="0 0 512 512"
   version="1.1"
   id="svg1"
   xml:space="preserve"
   sodipodi:docname="duckduckgo.svg"
   inkscape:version="1.4.3 (0d15f75042, 2025-12-25)"
   xmlns:inkscape="http://www.inkscape.org/namespaces/inkscape"
   xmlns:sodipodi="http://sodipodi.sourceforge.net/DTD/sodipodi-0.dtd"
   xmlns="http://www.w3.org/2000/svg"
   xmlns:svg="http://www.w3.org/2000/svg"><sodipodi:namedview
     id="namedview1"
     pagecolor="#000000"
     bordercolor="#000000"
     borderopacity="0.25"
     inkscape:showpageshadow="2"
     inkscape:pageopacity="0.0"
     inkscape:pagecheckerboard="0"
     inkscape:deskcolor="#d1d1d1"
     inkscape:zoom="0.84570313"
     inkscape:cx="297.38568"
     inkscape:cy="352.36951"
     inkscape:window-width="1912"
     inkscape:window-height="1019"
     inkscape:window-x="0"
     inkscape:window-y="0"
     inkscape:window-maximized="1"
     inkscape:current-layer="svg1" /><defs
     id="defs1" /><path
     style="fill:#ffffff;stroke-width:1"
     d="M 168.0201,508.73958 C 116.66022,490.79562 76.086792,459.52917 46.301312,414.94125 33.442289,395.69179 21.526303,371.53393 14.582833,350.63689 7.1773087,328.34918 2.9552581,307.57103 0.63153629,281.97724 -0.20699598,272.74297 -0.21068205,241.18538 0.62157393,232.0197 3.9210098,195.85631 11.581471,166.93596 25.32306,138.76548 48.865724,90.502606 89.615585,49.755435 137.78542,26.310502 166.07794,12.540122 194.97956,4.8829483 231.03953,1.6039353 c 9.39441,-0.85427287 40.317,-0.85367512 49.70135,0 43.46839,3.9587453 78.28925,14.6887107 110.81099,34.1462067 40.59176,24.285757 74.48931,61.082252 94.89821,103.014448 16.34685,33.58612 24.44476,69.0368 25.45693,111.44377 1.49944,62.81907 -15.13811,117.66557 -49.66,163.70713 -29.56143,39.42573 -68.44623,67.42648 -116.61626,83.9748 -7.88083,2.70739 -21.66287,6.72637 -28.11778,8.19945 l -3.19404,0.7289 -2.80112,-4.69216 c -1.54058,-2.5807 -5.36652,-8.49663 -8.50218,-13.14653 -12.93175,-19.17655 -17.46004,-26.1581 -20.41826,-31.48006 -1.71343,-3.08251 -3.02458,-5.69538 -2.9136,-5.80636 0.11098,-0.11098 3.59632,1.10496 7.74504,2.70211 16.42585,6.32345 29.27342,9.97571 35.12471,9.98517 2.35879,0.004 3.11902,-0.22475 4.25772,-1.28011 4.05598,-3.75897 5.10183,-10.99765 4.73711,-32.78888 -0.42261,-25.2516 -2.47476,-36.56949 -7.10198,-39.16663 -4.83742,-2.71522 -23.1339,6.74148 -45.78992,23.66697 -2.92345,2.18404 -5.43736,3.97099 -5.58649,3.97099 -0.14904,0 -0.27098,-0.57279 -0.27098,-1.27288 0,-0.70008 -0.65752,-2.00864 -1.46098,-2.9079 -1.31991,-1.47724 -1.81973,-1.66345 -5.17924,-1.92954 l -3.71835,-0.29449 -1.50989,-4.09909 c -2.50743,-6.80694 -6.89466,-22.14094 -8.28291,-28.94978 -2.06211,-10.11423 -2.89268,-16.56056 -3.23488,-25.10688 -0.3194,-7.97796 0.42798,-18.73024 1.36813,-19.68356 0.27854,-0.28258 3.16903,0.8122 7.26934,2.75336 14.88068,7.04483 32.4788,13.51453 44.66556,16.42063 19.5096,4.65237 31.92949,4.30624 56.14003,-1.56453 27.91046,-6.76796 42.57217,-12.95568 47.19601,-19.91822 3.01082,-4.53369 1.49933,-9.54727 -3.27244,-10.85524 -4.05429,-1.11128 -19.52823,0.02 -42.6187,3.11587 -32.25117,4.32402 -42.27948,4.55756 -55.14419,1.28419 -12.48254,-3.1761 -22.76111,-8.4206 -27.1319,-13.84363 -3.43343,-4.2599 -4.87768,-10.09982 -3.38262,-13.6779 1.02572,-2.4549 2.1972,-2.72673 8.60907,-1.99762 2.80292,0.31871 6.34005,0.57949 7.86041,0.57949 1.52036,0 6.29651,0.44342 10.61371,0.98539 13.06474,1.64012 14.17734,1.68672 19.88767,0.8329 17.93235,-2.68129 62.472,-18.06487 86.8521,-29.99791 13.57741,-6.64561 19.8542,-11.19577 21.54252,-15.61669 2.66533,-6.97897 -6.4856,-12.03327 -23.37848,-12.91245 -11.37483,-0.59206 -21.14642,1.71393 -64.23465,15.15814 -8.15758,2.54532 -14.89114,4.56866 -14.96347,4.49632 -0.0727,-0.0723 0.20144,-1.96759 0.6083,-4.21166 2.40492,-13.26114 0.98608,-28.72771 -4.34608,-47.37676 -8.24605,-28.83985 -22.32018,-55.29561 -36.27088,-68.17964 -8.39569,-7.75391 -19.13532,-13.25343 -32.49445,-16.63974 l -5.1627,-1.30876 -6.73087,-6.80987 C 232.93049,105.17398 222.54363,97.805718 206.95741,89.761904 194.00284,83.076161 183.12803,78.814659 171.859,76.007663 c -9.17743,-2.285865 -12.98654,-2.786075 -21.26398,-2.791853 -6.30348,-0.01 -9.02201,0.251151 -15.11539,1.42143 -13.78762,2.648097 -11.51291,1.333861 -17.948,10.370026 -3.09192,4.341698 -5.62167,8.010439 -5.62167,8.152602 0,0.555203 8.80594,0.21718 14.62426,-0.56118 8.61994,-1.153343 20.70508,-0.745384 29.95325,1.01108 6.37322,1.210428 19.86455,4.64326 20.41617,5.194876 0.56746,0.567456 -15.64052,7.310186 -21.58805,8.980866 -2.03272,0.57105 -7.70489,1.71074 -12.60478,2.53284 -9.68691,1.62496 -13.34738,2.95972 -15.66214,5.71072 -1.19956,1.42562 -2.20158,3.85564 -1.75018,4.24447 0.1043,0.0897 5.954,-0.40507 12.99929,-1.09965 16.93154,-1.66929 41.89812,-1.92413 50.75038,-0.51804 3.11324,0.49453 6.68714,1.20913 7.942,1.588 l 2.28148,0.6888 -2.56192,0.37897 c -14.45509,2.13832 -25.88641,5.6117 -36.6356,11.13175 -24.5142,12.58874 -38.67132,33.6698 -42.25717,62.92449 -0.91255,7.44487 -1.02692,22.46573 -0.23262,30.54132 2.15745,21.9343 15.96409,92.14967 34.07637,173.30024 3.22661,14.45663 8.52699,38.66684 11.7787,53.80048 3.25162,15.13363 7.4115,34.27882 9.24408,42.54488 1.83268,8.26605 3.26148,15.21815 3.17521,15.44911 -0.0867,0.23096 -3.61535,-0.78842 -7.84258,-2.2653 z m 7.64432,-260.45702 c -3.3086,-1.18366 -6.23843,-3.339 -8.87338,-6.52754 -5.68004,-6.87373 -4.79777,-16.13913 2.15984,-22.68231 3.74934,-3.52598 6.76365,-4.82906 11.37513,-4.91752 3.10716,-0.0598 4.05937,0.15929 7.01191,1.61191 3.83671,1.88767 7.30889,5.36383 9.20672,9.21718 1.62028,3.28997 1.67647,9.54086 0.11626,12.92786 -1.55931,3.38501 -5.94813,7.92512 -9.19815,9.51521 -3.6791,1.80003 -8.23449,2.13023 -11.79833,0.85521 z m 16.18157,-19.59338 c 1.14338,-1.14348 1.32699,-3.3876 0.43685,-5.34112 -0.80924,-1.77609 -3.46043,-2.61004 -5.82081,-1.83098 -2.09827,0.69248 -2.81417,1.79163 -2.81417,4.32027 0,2.6757 1.42851,3.87656 4.61138,3.87656 1.8788,0 2.83519,-0.27327 3.58675,-1.02473 z m 100.48192,6.5134 c -2.39675,-0.76541 -7.43512,-5.5598 -8.79518,-8.36919 -3.27154,-6.75817 0.19048,-15.26782 7.82106,-19.22378 3.3616,-1.74281 8.47418,-1.65116 12.28529,0.22037 5.40149,2.65258 8.30373,7.34794 8.30084,13.42957 0,4.09513 -1.04406,6.60634 -4.18898,10.09506 -2.71335,3.00993 -6.20207,4.50957 -10.35358,4.45059 -1.83178,-0.0259 -4.11307,-0.29718 -5.06945,-0.60262 z m 14.51118,-16.02835 c 2.2752,-2.27521 1.27687,-5.79541 -1.86585,-6.57895 -2.81527,-0.70185 -4.5016,0.56576 -4.5016,3.38382 0,1.25874 0.3458,2.50752 0.848,3.06253 1.06219,1.17366 4.39818,1.25386 5.51945,0.1326 z M 146.78163,197.68989 c -0.0388,-0.28184 -0.26968,-1.54646 -0.51346,-2.81039 -0.99873,-5.17704 1.39902,-11.21742 5.71521,-14.39821 9.16787,-6.75637 22.49801,-8.10348 29.8862,-3.02029 1.85659,1.27738 3.76777,3.07529 3.25002,3.05735 -0.1049,0 -1.65245,-0.46484 -3.43891,-1.02482 -6.48888,-2.03402 -12.90086,-1.1395 -21.09022,2.94238 -6.69461,3.3368 -11.2784,7.84297 -12.72832,12.51293 -0.5557,1.78934 -1.04187,3.02278 -1.08052,2.74105 z M 270.97756,178.7316 c 1.0066,-4.2595 4.84848,-8.28819 9.14834,-9.59326 1.23494,-0.37488 4.78293,-0.65442 8.30473,-0.65442 7.12508,0 9.32248,0.72326 13.28053,4.37168 2.3292,2.14699 4.72734,5.45998 4.27774,5.90958 -0.12971,0.12971 -1.49176,-0.3196 -3.02677,-0.99843 -5.67247,-2.50862 -9.50967,-3.39089 -14.71361,-3.38282 -7.49379,0.011 -12.84996,1.51468 -16.15557,4.53427 l -1.47862,1.3505 z"
     id="path1" /></svg>
