<?xml version="1.0" encoding="UTF-8" standalone="no"?>
<!-- Created with Inkscape (http://www.inkscape.org/) -->

<svg
   viewBox="0 0 512 512"
   version="1.1"
   id="svg1"
   xml:space="preserve"
   width="512"
   height="512"
   xmlns="http://www.w3.org/2000/svg"
   xmlns:svg="http://www.w3.org/2000/svg"><defs
     id="defs1" /><path
     style="fill:#ffffff;fill-opacity:1;stroke-width:0.999997"
     d="M 232.40235,510.86171 C 193.83622,507.18453 155.25499,494.32944 122.47931,474.23552 89.525085,454.03226 57.77937,422.28658 37.576171,389.33236 -8.4643175,314.23424 -12.456089,220.36814 27.035923,141.4764 47.813989,99.968959 82.771957,61.910013 122.47931,37.566577 172.35101,6.9916903 231.47717,-5.4603127 289.85298,2.3174778 331.43931,7.8584886 369.46556,22.81121 403.74229,47.101259 l 8.28307,5.869634 -4.86947,6.181862 c -2.67817,3.400009 -15.57097,20.136615 -28.65063,37.192547 -13.07956,17.056028 -24.32114,31.584548 -24.98129,32.285788 -0.96078,1.02076 -2.87453,0.15436 -9.59417,-4.34339 C 327.37296,113.20558 308.278,105.06247 288.77144,100.76527 276.62686,98.089996 247.41896,97.022444 235.00285,98.800231 164.78507,108.85409 110.77764,161.80467 99.290613,231.85657 c -1.802381,10.99104 -1.802381,37.09796 0,48.08899 11.483127,70.02826 65.500257,123.00537 135.660647,133.04867 12.39281,1.77402 40.78471,0.77387 52.97047,-1.86595 53.34889,-11.55684 96.60663,-48.40151 116.02131,-98.82102 l 2.84534,-7.38908 H 331.34953 255.91058 V 255.90107 206.88398 H 383.95529 512 l -8e-4,29.76038 c -5e-4,16.3682 -0.45769,34.7121 -1.01626,40.76421 -3.73853,40.51266 -16.16244,78.36267 -36.73776,111.92379 -20.20329,32.95422 -51.94901,64.6999 -84.90324,84.90316 -46.48449,28.49835 -103.24738,41.74548 -156.93959,36.62619 z"
     id="path2" /></svg>
