<?xml version="1.0" encoding="UTF-8" standalone="no"?>
<svg
   id="Layer_1"
   data-name="Layer 1"
   viewBox="0 0 24 24"
   width="512"
   height="512"
   version="1.1"
   sodipodi:docname="house-chimney.svg"
   inkscape:version="1.4.2 (ebf0e940d0, 2025-05-08)"
   xmlns:inkscape="http://www.inkscape.org/namespaces/inkscape"
   xmlns:sodipodi="http://sodipodi.sourceforge.net/DTD/sodipodi-0.dtd"
   xmlns="http://www.w3.org/2000/svg"
   xmlns:svg="http://www.w3.org/2000/svg">
  <defs
     id="defs1" />
  <sodipodi:namedview
     id="namedview1"
     pagecolor="#ffffff"
     bordercolor="#000000"
     borderopacity="1.00"
     inkscape:showpageshadow="2"
     inkscape:pageopacity="0.0"
     inkscape:pagecheckerboard="0"
     inkscape:deskcolor="#505050"
     inkscape:zoom="1.8515625"
     inkscape:cx="255.72996"
     inkscape:cy="256"
     inkscape:current-layer="Layer_1" />
  <path
     d="M22,5.644V2.5c0-.829-.672-1.5-1.5-1.5s-1.5,.671-1.5,1.5v1.089L15.076,.941c-1.869-1.262-4.283-1.262-6.152,0L2.424,5.327C.906,6.351,0,8.055,0,9.886v8.614c0,3.033,2.468,5.5,5.5,5.5h3c.828,0,1.5-.671,1.5-1.5V14.5c0-.276,.225-.5,.5-.5h3c.275,0,.5,.224,.5,.5v8c0,.829,.672,1.5,1.5,1.5h3c3.032,0,5.5-2.467,5.5-5.5V9.886c0-1.654-.739-3.204-2-4.242Zm-1,12.856c0,1.378-1.121,2.5-2.5,2.5h-1.5v-6.5c0-1.93-1.57-3.5-3.5-3.5h-3c-1.93,0-3.5,1.57-3.5,3.5v6.5h-1.5c-1.379,0-2.5-1.122-2.5-2.5V9.886c0-.833,.412-1.607,1.102-2.073L10.602,3.427c.85-.573,1.947-.573,2.797,0l6.5,4.387c.689,.465,1.102,1.24,1.102,2.072v8.614Z"
     id="path1"
     style="fill:#ffffff;fill-opacity:1" />
</svg>
