<?xml version="1.0" encoding="UTF-8" standalone="no"?>
<!-- Created with Inkscape (http://www.inkscape.org/) -->

<svg
   viewBox="0 0 212.80028 77.005781"
   version="1.1"
   id="svg1"
   xml:space="preserve"
   sodipodi:docname="logo.svg"
   inkscape:version="1.4.2 (ebf0e940d0, 2025-05-08)"
   width="212.80029"
   height="77.005783"
   xmlns:inkscape="http://www.inkscape.org/namespaces/inkscape"
   xmlns:sodipodi="http://sodipodi.sourceforge.net/DTD/sodipodi-0.dtd"
   xmlns:xlink="http://www.w3.org/1999/xlink"
   xmlns="http://www.w3.org/2000/svg"
   xmlns:svg="http://www.w3.org/2000/svg"><sodipodi:namedview
     id="namedview1"
     pagecolor="#ffffff"
     bordercolor="#000000"
     borderopacity="1.00"
     inkscape:showpageshadow="2"
     inkscape:pageopacity="0.0"
     inkscape:pagecheckerboard="0"
     inkscape:deskcolor="#505050"
     inkscape:zoom="3.7044028"
     inkscape:cx="104.8752"
     inkscape:cy="88.003389"
     inkscape:current-layer="svg1" /><defs
     id="defs1"><color-profile
       name="Artifex-CMYK-SWOP-Profile"
       xlink:href="file:///app/share/color/icc/ghostscript/default_cmyk.icc"
       id="color-profile2" /><filter
       style="color-interpolation-filters:sRGB"
       inkscape:label="Drop Shadow"
       id="filter7"
       x="-0.061972618"
       y="-0.21551791"
       width="1.1239452"
       height="1.4669555"><feFlood
         result="flood"
         in="SourceGraphic"
         flood-opacity="0.301961"
         flood-color="rgb(0,0,0)"
         id="feFlood6" /><feGaussianBlur
         result="blur"
         in="SourceGraphic"
         stdDeviation="5.000000"
         id="feGaussianBlur6" /><feOffset
         result="offset"
         in="blur"
         dx="0.000000"
         dy="2.000000"
         id="feOffset6" /><feComposite
         result="comp1"
         operator="in"
         in="flood"
         in2="offset"
         id="feComposite6" /><feComposite
         result="comp2"
         operator="over"
         in="SourceGraphic"
         in2="comp1"
         id="feComposite7" /></filter></defs><g
     id="layer6"
     transform="translate(-196.38372,101.24207)"
     style="display:inline;filter:url(#filter7)"><g
       id="g10"
       transform="matrix(0.29491876,0,0,0.29491876,226.94869,-135.08822)"
       style="display:inline;fill:#ffffff;stroke-width:3.39076"><g
         id="g8"
         transform="matrix(0.99994865,0,0,0.99999755,-3049.0167,98.631582)"
         style="fill:#ffffff;fill-opacity:1;stroke-width:3.39083"><path
           id="path7"
           style="color:#000000;fill:#ffffff;fill-opacity:1;stroke-width:80.7447;stroke-linecap:round;stroke-linejoin:round;stroke-dasharray:none;-inkscape-stroke:none"
           d="m 3453.63,79.37553 a 12.231275,11.58992 0 0 0 -9.0635,3.872115 c -14.2545,-6.526481 -32.0345,-4.228552 -43.7928,6.913272 -14.8298,14.052173 -14.8323,37.189133 0,51.241313 11.8177,11.19793 29.719,13.46049 44.0098,6.81095 a 12.231275,11.58992 0 0 0 8.8491,3.62459 12.231275,11.58992 0 0 0 12.2324,-11.59103 v -21.86791 c 0.1298,-1.73035 0.1296,-3.46677 0,-5.1971 V 90.966036 A 12.231275,11.58992 0 0 0 3453.6326,79.37553 Z m 53.5519,0 a 12.231275,11.58992 0 0 0 -12.2318,11.590506 12.231275,11.58992 0 0 0 12.2303,11.588954 h 13.7718 v 13.05295 a 12.231275,11.58992 0 0 0 0.02,0.0997 12.231275,11.58992 0 0 0 0,0.0739 c 0,5.31215 -3.3235,10.02689 -8.5028,12.05973 -5.1794,2.03287 -11.049,0.927 -15.0131,-2.82928 a 12.231275,11.58992 0 0 0 -17.2936,0 12.231275,11.58992 0 0 0 0,16.38866 c 10.9107,10.33859 27.4144,13.44956 41.67,7.8543 14.2553,-5.59513 23.6051,-18.84973 23.6053,-33.47082 a 12.231275,11.58992 0 0 0 0,-0.0465 12.231275,11.58992 0 0 0 0,-0.13023 V 90.967069 a 12.232498,11.591079 0 0 0 -12.2324,-11.590506 z m 59.982,0 a 12.231275,11.58992 0 0 0 -12.2313,11.590506 v 24.640354 a 12.231275,11.58992 0 0 0 0,0.0455 c 0.02,12.90824 7.3146,24.87727 19.1142,31.33246 11.1223,6.08476 24.7214,6.43646 36.1337,1.0635 a 12.231275,11.58992 0 0 0 8.9918,3.78995 12.231275,11.58992 0 0 0 12.2282,-11.59103 v -24.56749 -0.0729 a 12.231275,11.58992 0 0 0 0,-0.0625 V 90.966036 a 12.231275,11.58992 0 0 0 -12.2282,-11.590506 12.231275,11.58992 0 0 0 -12.2324,11.590506 v 24.627434 a 12.231275,11.58992 0 0 0 0,0.0129 c 0,4.68148 -2.6051,8.96298 -6.8838,11.3037 -4.2784,2.34073 -9.4968,2.34073 -13.7754,0 -4.2716,-2.33683 -6.8784,-6.60811 -6.887,-11.28045 a 12.231275,11.58992 0 0 0 0,-0.0232 V 90.966036 A 12.231275,11.58992 0 0 0 3567.1645,79.37553 Z m -215.87,0.280086 c -4.6546,0.09328 -9.3288,0.991404 -13.7837,2.739884 -14.2555,5.59519 -23.6027,18.85242 -23.6027,33.47341 0,14.62097 9.3472,27.87769 23.6027,33.47288 14.2555,5.59519 30.7593,2.4848 41.6699,-7.85378 a 12.231275,11.58992 0 0 0 0,-16.38918 12.231275,11.58992 0 0 0 -17.2987,0 c -3.9642,3.75629 -9.8337,4.86269 -15.0131,2.8298 -5.1794,-2.03289 -8.5028,-6.74755 -8.5028,-12.05972 0,-5.3122 3.3259,-10.02426 8.5054,-12.05715 5.1794,-2.03288 11.0433,-0.927 15.0074,2.82929 a 12.231275,11.58992 0 0 0 17.2993,5.1e-4 12.231275,11.58992 0 0 0 0,-16.392277 v 0 c -7.5011,-7.107772 -17.646,-10.798874 -27.8862,-10.593667 z m 76.5154,23.000144 c 3.4993,6.9e-4 6.9987,1.29989 9.7395,3.89692 2.0491,1.94158 3.3313,4.28504 3.8489,6.72982 v 5.00228 c -0.5172,2.44316 -1.7984,4.7852 -3.8463,6.72569 -5.4815,5.19403 -14.0001,5.19403 -19.4816,0 -5.4813,-5.19408 -5.4813,-13.26639 0,-18.46037 2.7409,-2.59709 6.2401,-3.89501 9.7395,-3.89434 z" /><path
           id="path8"
           style="color:#000000;-inkscape-font-specification:'Comfortaa Bold';fill:#ffffff;fill-opacity:1;stroke-width:3.39083;-inkscape-stroke:none"
           d="m 3381.9438,152.44135 c -1.042,1.4e-4 -2.0669,0.42854 -2.8045,1.16581 l -5.1087,5.10615 -0.018,0.0196 c -0.6565,0.71075 -0.9746,1.68461 -0.9746,2.6634 0,1.042 0.3792,2.06864 1.0841,2.82361 l 0.031,0.0336 0.033,0.031 c 0.7554,0.70466 1.7822,1.08159 2.8246,1.08159 1.0213,0 2.0342,-0.39632 2.7528,-1.11466 l 5.038,-5.03639 -0.064,0.061 c 0.4267,-0.37331 0.7726,-0.85971 0.9555,-1.40818 0.1504,-0.45086 0.2249,-0.92575 0.2249,-1.40405 0,-1.04197 -0.3794,-2.06863 -1.0843,-2.8236 -0.7313,-0.78317 -1.8054,-1.19876 -2.8892,-1.19889 z m 145.1951,3.27112 c -1.2612,2.8e-4 -2.4717,0.5228 -3.3744,1.42523 -0.8795,0.8791 -1.3757,2.07855 -1.3757,3.32331 0,1.24477 0.4892,2.44353 1.3518,3.35121 l 0.023,0.0253 0.023,0.0233 c 0.908,0.86234 2.1069,1.34927 3.3522,1.34927 1.2454,0 2.4459,-0.49339 3.3254,-1.37252 0.903,-0.90265 1.4278,-2.11548 1.4278,-3.37654 0,-1.24915 -0.5286,-2.44644 -1.4319,-3.31763 -0.8714,-0.90286 -2.0708,-1.43062 -3.3202,-1.43091 h -6e-4 z m -55.3388,11.2143 c -2.2522,0 -4.335,0.54621 -6.1424,1.64589 -0.1906,0.11597 -0.3293,0.29188 -0.5115,0.41806 -0.1372,-0.21386 -0.2271,-0.45764 -0.4083,-0.63872 -0.7409,-0.74062 -1.7934,-1.11518 -2.8582,-1.11518 -1.0425,0 -2.0693,0.37952 -2.8246,1.08417 l -0.018,0.0155 -0.016,0.0155 c -0.741,0.74063 -1.1138,1.79227 -1.1137,2.85668 v 23.10245 c 0,1.04201 0.3771,2.06865 1.0821,2.82361 l 0.031,0.0331 0.033,0.0315 c 0.7553,0.70465 1.7827,1.08159 2.8252,1.08159 1.0648,0 2.1167,-0.3725 2.8576,-1.11311 l 0.016,-0.0176 0.016,-0.0155 c 0.705,-0.75496 1.0827,-1.7816 1.0827,-2.82361 v -13.31752 -1.32395 c 0,-1.67056 0.4624,-2.87087 1.4045,-3.86798 0.9461,-1.00132 2.0095,-1.45315 3.5047,-1.45315 1.4578,0 2.4503,0.39906 3.2721,1.2206 l 0.01,0.008 0.01,0.008 c 0.7408,0.71658 1.2077,1.91425 1.2077,3.8778 v 14.8487 c 0,1.04201 0.3771,2.06865 1.082,2.82361 l 0.031,0.0331 0.033,0.031 c 0.7552,0.70464 1.7821,1.08211 2.8246,1.08211 1.0649,0 2.1173,-0.37243 2.8582,-1.11311 l 0.016,-0.0176 0.016,-0.0155 c 0.7049,-0.75496 1.082,-1.7816 1.082,-2.82361 v -13.31753 -1.32394 c 0,-1.67471 0.456,-2.88124 1.3638,-3.87419 0.9439,-0.99502 2.0042,-1.44694 3.4949,-1.44694 1.4579,0 2.4482,0.39908 3.2701,1.2206 l 0.01,0.008 0.01,0.008 c 0.7408,0.71659 1.2072,1.91426 1.2072,3.8778 v 14.84819 c 0,1.04201 0.3791,2.06865 1.0841,2.82361 l 0.031,0.0336 0.033,0.031 c 0.7553,0.70463 1.7801,1.08159 2.8225,1.08159 1.065,0 2.1173,-0.37196 2.8583,-1.1126 l 0.016,-0.0181 0.016,-0.0155 c 0.7049,-0.75496 1.0841,-1.7816 1.0841,-2.82361 v -14.84819 c 0,-2.54239 -0.4642,-4.7834 -1.4454,-6.67246 -0.9323,-1.89434 -2.3047,-3.39908 -4.0556,-4.39352 -1.737,-0.98646 -3.7327,-1.4702 -5.8999,-1.4702 -2.4406,0 -4.6879,0.53325 -6.6616,1.61644 v 0.002 l -0.01,0.004 c -0.8718,0.48798 -1.6376,1.09803 -2.3446,1.76734 -0.6907,-0.76083 -1.482,-1.41025 -2.3792,-1.91978 -1.7369,-0.98647 -3.7328,-1.4702 -5.8999,-1.4702 z m -142.494,0.0507 c -2.9358,0 -5.6161,0.68173 -7.9433,2.05414 -2.3084,1.32712 -4.1546,3.21245 -5.472,5.5826 -1.3287,2.39086 -1.9849,5.12539 -1.9849,8.1194 0,2.9296 0.6591,5.62833 1.9849,8.01398 l 0.01,0.0119 0.01,0.01 c 1.3547,2.33221 3.2265,4.22257 5.5558,5.61206 l 0.012,0.006 0.01,0.008 c 2.3909,1.36564 5.1152,2.04276 8.0837,2.04276 4.0134,0 7.5176,-1.28974 10.2522,-3.83335 l 0.016,-0.0155 0.017,-0.0176 c 0.6946,-0.69427 1.1149,-1.70731 1.002,-2.6908 v -0.002 c -0.1106,-0.98993 -0.6729,-1.88271 -1.4516,-2.52698 -0.6836,-0.57545 -1.6207,-0.85272 -2.5099,-0.76326 -0.8898,0.059 -1.7342,0.43324 -2.4459,1.01131 v 0.002 c -0.6359,0.52008 -1.332,0.90192 -2.112,1.16374 -0.7386,0.22544 -1.6592,0.35348 -2.7642,0.35348 -1.6295,0 -2.9746,-0.35748 -4.1357,-1.05059 -1.191,-0.74598 -2.1053,-1.71591 -2.7972,-2.97398 -0.6505,-1.24514 -0.9886,-2.67521 -0.9886,-4.36045 0,-1.80267 0.3446,-3.29054 0.9922,-4.52635 0.6588,-1.25698 1.528,-2.17653 2.6686,-2.84892 l 0.01,-0.006 0.012,-0.006 c 1.1311,-0.69581 2.4228,-1.05059 3.9812,-1.05059 2.2135,0 3.9005,0.72342 5.3722,2.28462 l 0.014,0.0139 0.014,0.0134 c 0.6296,0.6293 1.3979,1.08806 2.2428,1.28674 l 0.037,0.008 0.037,0.008 c 0.8976,0.15835 1.8663,-0.06 2.6081,-0.58963 v -0.002 -0.002 c 0.8075,-0.58293 1.434,-1.38179 1.6568,-2.32752 0.2385,-1.01332 -0.1341,-2.11066 -0.8129,-2.88612 -1.4566,-1.67886 -3.1359,-2.96449 -5.0147,-3.80959 -1.8786,-0.87931 -3.9489,-1.31619 -6.1593,-1.31619 z m 47.4964,0 c -2.9979,0 -5.722,0.67748 -8.0838,2.04638 -2.3439,1.32431 -4.226,3.2065 -5.5811,5.57693 v 0.004 0.002 c -1.3347,2.36325 -1.9884,5.10086 -1.9884,8.12715 0,2.99399 0.6555,5.72647 1.9843,8.11733 l 0.01,0.0114 0.01,0.0119 c 1.3563,2.33487 3.2338,4.21136 5.5697,5.5671 l 0.01,0.004 0.01,0.004 c 2.3617,1.33259 5.0828,1.98746 8.0781,1.98746 2.9953,0 5.7164,-0.65486 8.0781,-1.98746 l 0.01,-0.004 0.01,-0.004 c 2.3386,-1.35728 4.2043,-3.23945 5.5268,-5.58106 v -0.006 -0.004 c 1.3288,-2.39085 1.9848,-5.12334 1.9848,-8.11733 0,-3.02713 -0.6759,-5.76678 -2.0454,-8.12922 -1.3208,-2.37094 -3.1862,-4.2593 -5.5289,-5.5826 -2.3587,-1.36711 -5.0671,-2.04432 -8.0325,-2.04432 z m 48.1745,0 c -1.9089,0 -3.7604,0.32293 -5.5284,0.96067 -1.8071,0.6171 -3.3504,1.60992 -4.5439,2.95846 -1.263,1.39231 -1.8986,3.22177 -1.8986,5.24309 0,2.34952 0.9862,4.48131 2.7817,6.07664 l 0.01,0.006 v 0.004 c 1.8722,1.62737 4.6234,2.69787 8.2481,3.4153 l 0.012,0.002 0.012,0.002 c 2.6102,0.4683 4.3347,1.12258 4.9915,1.62057 l 0.01,0.006 0.01,0.008 c 0.8018,0.58776 0.9865,1.00061 0.9669,1.58802 -0.02,0.5928 -0.2173,0.96153 -1.0316,1.46038 l -0.01,0.006 -0.01,0.004 c -0.7132,0.45148 -1.998,0.78134 -3.8618,0.78134 -1.4328,0 -2.6976,-0.24707 -3.8333,-0.72244 -1.1635,-0.53782 -1.9521,-1.09051 -2.3497,-1.53478 l -0.01,-0.0119 -0.01,-0.01 c -0.6691,-0.71642 -1.5876,-1.1769 -2.559,-1.28519 -1.0717,-0.15795 -2.1412,0.2469 -3.0144,0.94155 -0.8252,0.6359 -1.3886,1.58615 -1.5358,2.61637 v 0.0274 0.0274 c -0.1054,1.05273 0.2982,2.12945 1.0258,2.90524 l 0.016,0.016 0.016,0.0155 c 1.3175,1.31694 3.0806,2.35062 5.2509,3.15949 l 0.012,0.004 0.014,0.006 c 2.229,0.77979 4.6326,1.16374 7.1888,1.16374 2.5908,0 4.8218,-0.39659 6.6791,-1.26348 v -0.002 c 1.8357,-0.84146 3.3035,-2.02037 4.2881,-3.53208 1.0042,-1.48928 1.5219,-3.2119 1.5219,-5.04001 0,-1.59012 -0.3932,-3.0701 -1.1896,-4.33099 -0.818,-1.33048 -2.1079,-2.40232 -3.7703,-3.27267 v -0.002 c -1.6643,-0.88944 -3.8123,-1.56432 -6.4859,-2.0991 v -0.002 c -1.8167,-0.37007 -3.1748,-0.74206 -4.0148,-1.07021 -0.8082,-0.35014 -1.2355,-0.70581 -1.3612,-0.86713 -0.1681,-0.29912 -0.2619,-0.59238 -0.2619,-0.97048 0,-0.54393 0.098,-0.7337 0.8185,-1.09554 0.8518,-0.41091 1.9423,-0.64596 3.313,-0.64596 1.2112,0 2.2386,0.14469 3.0866,0.40773 0.789,0.24474 1.5412,0.69312 2.282,1.40404 l 0.01,0.008 0.01,0.006 c 0.7093,0.66176 1.6099,1.09212 2.5869,1.26968 1.0273,0.18671 2.1104,0.007 2.9595,-0.57619 l 0.023,-0.0155 0.021,-0.0155 c 0.7833,-0.58729 1.3524,-1.50328 1.4103,-2.48614 v -0.002 -0.002 c 0.054,-0.977 -0.3401,-1.93952 -0.9865,-2.68718 -1.1911,-1.46152 -2.7874,-2.59292 -4.7139,-3.38583 -1.9517,-0.80333 -4.1538,-1.19114 -6.5794,-1.19114 z m 143.3264,0 c -2.9357,0 -5.616,0.68173 -7.9432,2.05414 -2.3084,1.32712 -4.1546,3.21451 -5.472,5.58466 -1.3288,2.39085 -1.9849,5.12333 -1.9849,8.11734 0,2.9296 0.659,5.62833 1.9849,8.01398 l 0.01,0.0119 0.01,0.01 c 1.3547,2.33222 3.2284,4.22257 5.5578,5.61206 l 0.01,0.006 0.012,0.008 c 2.3909,1.36565 5.1152,2.04276 8.0838,2.04276 4.0133,0 7.5159,-1.28974 10.2506,-3.83335 l 0.018,-0.0155 0.016,-0.0176 c 0.6959,-0.69563 1.1172,-1.7112 1.0019,-2.69648 -0.1118,-0.98824 -0.6737,-1.88005 -1.4515,-2.52336 -0.6834,-0.5755 -1.6212,-0.85272 -2.5104,-0.76326 -0.8898,0.059 -1.7342,0.43319 -2.4459,1.01131 v 0.002 c -0.6361,0.52011 -1.3316,0.90192 -2.1115,1.16374 -0.7387,0.22544 -1.6578,0.35348 -2.7626,0.35348 -1.6313,0 -2.9774,-0.3581 -4.1393,-1.05266 -1.1899,-0.74579 -2.1043,-1.71467 -2.7957,-2.97191 -0.6505,-1.24515 -0.9886,-2.6752 -0.9886,-4.36045 0,-1.80268 0.3451,-3.29053 0.9927,-4.52635 0.6587,-1.25698 1.5279,-2.17653 2.6686,-2.84892 l 0.01,-0.006 0.012,-0.006 c 1.1311,-0.69581 2.4233,-1.05059 3.9816,-1.05059 2.2136,0 3.9007,0.72343 5.3724,2.28462 l 0.014,0.0139 0.014,0.0134 c 0.6296,0.62933 1.3978,1.08805 2.2427,1.28674 l 0.037,0.008 0.037,0.008 c 0.8976,0.15834 1.8657,-0.06 2.6076,-0.58963 v -0.002 -0.002 c 0.8075,-0.58295 1.4341,-1.38173 1.6567,-2.32752 0.2386,-1.01332 -0.1334,-2.11066 -0.8122,-2.88612 -1.4557,-1.67759 -3.1338,-2.96258 -5.0111,-3.80752 -1.8797,-0.88054 -3.9515,-1.31826 -6.1636,-1.31826 z m 47.4986,0 c -2.9963,0 -5.721,0.67687 -8.0818,2.04432 -2.345,1.32438 -4.2297,3.20775 -5.5852,5.57899 v 0.004 0.002 c -1.3347,2.36325 -1.989,5.10086 -1.989,8.12715 0,2.99399 0.656,5.72647 1.9849,8.11733 l 0.01,0.0114 0.01,0.0119 c 1.3563,2.33487 3.2339,4.21136 5.5697,5.5671 l 0.01,0.004 0.01,0.004 c 2.3616,1.3326 5.0828,1.98746 8.0781,1.98746 2.9953,0 5.7144,-0.65486 8.0759,-1.98746 l 0.01,-0.004 0.01,-0.004 c 2.3385,-1.35729 4.2022,-3.23946 5.5247,-5.58106 v -0.004 -0.006 c 1.3288,-2.39086 1.9829,-5.12333 1.9829,-8.11733 0,-3.02486 -0.6738,-5.76179 -2.0413,-8.12301 -1.3211,-2.37388 -3.1879,-4.26434 -5.5325,-5.58881 -2.3587,-1.3671 -5.0656,-2.04432 -8.031,-2.04432 z m -88.6626,0.20877 c -1.0422,1.2e-4 -2.0669,0.37759 -2.822,1.08211 l -0.018,0.0155 -0.016,0.0155 c -0.741,0.74063 -1.1158,1.79226 -1.1158,2.85668 v 23.10245 c 0,1.04201 0.3793,2.06865 1.0843,2.82361 l 0.031,0.0331 0.033,0.0315 c 0.7552,0.70463 1.7807,1.08365 2.8231,1.08365 1.0649,0 2.1167,-0.37456 2.8577,-1.11518 l 0.016,-0.0155 0.016,-0.0176 c 0.705,-0.75496 1.0843,-1.7816 1.0843,-2.82361 V 171.156 c 0,-1.06442 -0.3743,-2.11605 -1.1153,-2.85668 -0.7408,-0.7405 -1.7929,-1.11299 -2.8576,-1.11311 z m -150.3503,7.10964 h 0.013 c 1.5969,0 2.9304,0.35622 4.0985,1.05678 1.1778,0.70642 2.064,1.6609 2.7233,2.94866 l 0.01,0.0155 0.01,0.0155 c 0.6794,1.24035 1.0314,2.68202 1.0314,4.40128 0,1.71925 -0.352,3.16095 -1.0314,4.40128 l -0.01,0.0103 -0.01,0.0114 c -0.657,1.25355 -1.5442,2.19518 -2.729,2.90576 -1.1681,0.70056 -2.5016,1.05627 -4.0985,1.05627 -1.597,0 -2.9283,-0.35571 -4.0964,-1.05627 -1.1891,-0.71308 -2.1015,-1.66353 -2.7936,-2.92695 -0.6796,-1.24033 -1.0315,-2.68203 -1.0315,-4.40128 0,-1.71926 0.3519,-3.16145 1.0315,-4.4018 v -0.006 -0.006 c 0.6941,-1.2973 1.6037,-2.25731 2.7859,-2.96623 v -0.002 c 1.1681,-0.70056 2.4994,-1.05626 4.0964,-1.05626 z m 239.001,0 h 0.012 c 1.597,0 2.9283,0.35828 4.0964,1.05885 1.1778,0.70641 2.0641,1.65885 2.7232,2.94659 l 0.01,0.0155 0.01,0.0155 c 0.6795,1.24034 1.0314,2.68204 1.0314,4.40128 0,1.71924 -0.3519,3.16095 -1.0314,4.40128 l -0.01,0.0103 -0.01,0.0114 c -0.6568,1.25353 -1.5441,2.19518 -2.7289,2.90576 -1.1681,0.70056 -2.4994,1.05627 -4.0964,1.05627 -1.597,0 -2.9304,-0.3557 -4.0985,-1.05627 -1.189,-0.71308 -2.0995,-1.66352 -2.7916,-2.92695 -0.6797,-1.24033 -1.0337,-2.68204 -1.0336,-4.40128 0,-1.71924 0.3539,-3.16146 1.0336,-4.4018 v -0.006 -0.004 c 0.6942,-1.29733 1.6033,-2.25939 2.7854,-2.9683 1.1681,-0.70059 2.5015,-1.05833 4.0985,-1.05833 z" /></g><path
         id="path10"
         style="display:inline;fill:#ffffff;fill-opacity:1;stroke:none;stroke-width:1.79428"
         d="m 51.35801,144.7199 c -8.7249,2.50942 -16.9903,8.16581 -22.7182,18.08667 -10.9637,18.98968 -4.4572,43.27211 14.5325,54.2358 22.6758,13.09187 45.6936,0.26302 54.23573,-14.53243 4.0201,-6.9629 1.6344,-15.86635 -5.3285,-19.88638 -6.96283,-4.02005 -15.86633,-1.63436 -19.88643,5.32854 -2.9236,5.0639 -9.399,6.799 -14.463,3.87535 -5.0639,-2.92364 -6.799,-9.39912 -3.8753,-14.46305 2.9236,-5.06392 9.3991,-6.79902 14.463,-3.87535 6.9629,4.02002 15.8664,1.63433 19.8863,-5.32854 4.02013,-6.96289 1.6344,-15.86636 -5.3285,-19.88637 -8.3221,-4.80482 -20.2999,-6.78067 -31.5176,-3.55424 z m -1.9221,89.51498 c -8.4744,2.2707 -15.5345,7.0573 -20.6177,13.40707 -2.265,2.82949 -4.1269,5.96697 -5.5364,9.34897 -1.0862,2.60608 -1.8996,5.34722 -2.4188,8.19794 -1.0163,5.58079 -0.9385,11.54626 0.5096,17.65309 1.6588,5.54309 4.0463,10.82828 6.9794,15.77664 -3.4854,0.61639 -6.8856,1.18237 -10.1889,1.69594 -32.3058,4.7907 -52.3921,3.99773 -54.0377,-2.13326 -1.643,-6.13189 15.3578,-16.86253 45.7319,-28.86697 0.1416,-2.74815 0.5085,-5.47998 1.0972,-8.16805 -54.5688,19.10077 -87.7226,37.51695 -85.1643,47.3069 2.6807,9.75695 40.6001,9.12888 97.4073,-1.61353 3.0802,-0.5959 6.1977,-1.21783 9.3479,-1.86492 14.1201,-2.84058 28.8668,-6.18573 43.8069,-9.93722 5.2199,-1.29161 10.4569,-2.63128 15.69173,-4.01413 5.225,-1.4198 10.4301,-2.87808 15.5964,-4.36951 14.8143,-4.22118 29.2578,-8.6975 42.9065,-13.29754 3.0517,-1.0147 6.0625,-2.03485 9.028,-3.0589 54.5676,-19.10039 87.7212,-37.51627 85.164,-47.3063 -2.6336,-9.76309 -40.4685,-9.15742 -97.2071,1.55618 1.9004,2.03313 3.6289,4.22055 5.1672,6.53976 32.1068,-4.73539 52.0531,-3.92724 53.7048,2.17595 1.6429,6.13168 -15.3585,16.86227 -45.7315,28.86634 -3.1175,1.20685 -6.3451,2.41681 -9.6717,3.62566 0.066,-5.75193 -0.5092,-11.52272 -1.8441,-17.15265 -1.5999,-5.97094 -4.5127,-11.22435 -8.2979,-15.61006 -1.893,-2.1934 -3.9982,-4.16853 -6.2975,-5.88437 -2.9214,-2.18015 -6.1304,-3.94027 -9.536,-5.25039 -7.5579,-2.90752 -16.0552,-3.57474 -24.4756,-1.31849 -3.844,1.04407 -7.4761,2.65123 -10.79033,4.74445 -1.8518,1.16963 -3.8952,2.21728 -6.0405,3.15078 -4.8161,2.09566 -10.1921,3.5558 -15.4159,4.17458 -2.4065,0.28501 -4.7799,0.40108 -7.0433,0.31114 -3.9532,-0.15712 -7.9391,0.27663 -11.8236,1.31492 z m -11.5727,76.99103 c 3.8836,4.09936 8.2307,7.75177 13.0152,10.77712 14.2977,9.04114 32.2254,12.72634 51.50603,7.61106 19.255,-5.21029 32.9383,-17.36569 40.7999,-32.34435 2.6308,-5.01244 4.5698,-10.3488 5.8834,-15.84099 -14.393,4.59297 -29.3007,9.03156 -44.429,13.22827 -3.5938,1.01793 -7.1999,2.02197 -10.8142,3.01109 -3.62453,0.95047 -7.24953,1.884 -10.87063,2.79935 -15.1999,3.92972 -30.3296,7.53959 -45.0907,10.75845 z" /></g></g><g
     id="g13"
     transform="translate(-196.38372,101.24207)"
     style="display:inline"><g
       id="g12"
       transform="matrix(0.29491876,0,0,0.29491876,226.94869,-135.08822)"
       style="display:inline;fill:#ffffff;stroke-width:3.39076"><g
         id="g11"
         transform="matrix(0.99994865,0,0,0.99999755,-3049.0167,98.631582)"
         style="fill:#ffffff;fill-opacity:1;stroke-width:3.39083"><path
           id="path9"
           style="color:#000000;fill:#ffffff;fill-opacity:1;stroke-width:80.7447;stroke-linecap:round;stroke-linejoin:round;stroke-dasharray:none;-inkscape-stroke:none"
           d="m 3453.63,79.37553 a 12.231275,11.58992 0 0 0 -9.0635,3.872115 c -14.2545,-6.526481 -32.0345,-4.228552 -43.7928,6.913272 -14.8298,14.052173 -14.8323,37.189133 0,51.241313 11.8177,11.19793 29.719,13.46049 44.0098,6.81095 a 12.231275,11.58992 0 0 0 8.8491,3.62459 12.231275,11.58992 0 0 0 12.2324,-11.59103 v -21.86791 c 0.1298,-1.73035 0.1296,-3.46677 0,-5.1971 V 90.966036 A 12.231275,11.58992 0 0 0 3453.6326,79.37553 Z m 53.5519,0 a 12.231275,11.58992 0 0 0 -12.2318,11.590506 12.231275,11.58992 0 0 0 12.2303,11.588954 h 13.7718 v 13.05295 a 12.231275,11.58992 0 0 0 0.02,0.0997 12.231275,11.58992 0 0 0 0,0.0739 c 0,5.31215 -3.3235,10.02689 -8.5028,12.05973 -5.1794,2.03287 -11.049,0.927 -15.0131,-2.82928 a 12.231275,11.58992 0 0 0 -17.2936,0 12.231275,11.58992 0 0 0 0,16.38866 c 10.9107,10.33859 27.4144,13.44956 41.67,7.8543 14.2553,-5.59513 23.6051,-18.84973 23.6053,-33.47082 a 12.231275,11.58992 0 0 0 0,-0.0465 12.231275,11.58992 0 0 0 0,-0.13023 V 90.967069 a 12.232498,11.591079 0 0 0 -12.2324,-11.590506 z m 59.982,0 a 12.231275,11.58992 0 0 0 -12.2313,11.590506 v 24.640354 a 12.231275,11.58992 0 0 0 0,0.0455 c 0.02,12.90824 7.3146,24.87727 19.1142,31.33246 11.1223,6.08476 24.7214,6.43646 36.1337,1.0635 a 12.231275,11.58992 0 0 0 8.9918,3.78995 12.231275,11.58992 0 0 0 12.2282,-11.59103 v -24.56749 -0.0729 a 12.231275,11.58992 0 0 0 0,-0.0625 V 90.966036 a 12.231275,11.58992 0 0 0 -12.2282,-11.590506 12.231275,11.58992 0 0 0 -12.2324,11.590506 v 24.627434 a 12.231275,11.58992 0 0 0 0,0.0129 c 0,4.68148 -2.6051,8.96298 -6.8838,11.3037 -4.2784,2.34073 -9.4968,2.34073 -13.7754,0 -4.2716,-2.33683 -6.8784,-6.60811 -6.887,-11.28045 a 12.231275,11.58992 0 0 0 0,-0.0232 V 90.966036 A 12.231275,11.58992 0 0 0 3567.1645,79.37553 Z m -215.87,0.280086 c -4.6546,0.09328 -9.3288,0.991404 -13.7837,2.739884 -14.2555,5.59519 -23.6027,18.85242 -23.6027,33.47341 0,14.62097 9.3472,27.87769 23.6027,33.47288 14.2555,5.59519 30.7593,2.4848 41.6699,-7.85378 a 12.231275,11.58992 0 0 0 0,-16.38918 12.231275,11.58992 0 0 0 -17.2987,0 c -3.9642,3.75629 -9.8337,4.86269 -15.0131,2.8298 -5.1794,-2.03289 -8.5028,-6.74755 -8.5028,-12.05972 0,-5.3122 3.3259,-10.02426 8.5054,-12.05715 5.1794,-2.03288 11.0433,-0.927 15.0074,2.82929 a 12.231275,11.58992 0 0 0 17.2993,5.1e-4 12.231275,11.58992 0 0 0 0,-16.392277 v 0 c -7.5011,-7.107772 -17.646,-10.798874 -27.8862,-10.593667 z m 76.5154,23.000144 c 3.4993,6.9e-4 6.9987,1.29989 9.7395,3.89692 2.0491,1.94158 3.3313,4.28504 3.8489,6.72982 v 5.00228 c -0.5172,2.44316 -1.7984,4.7852 -3.8463,6.72569 -5.4815,5.19403 -14.0001,5.19403 -19.4816,0 -5.4813,-5.19408 -5.4813,-13.26639 0,-18.46037 2.7409,-2.59709 6.2401,-3.89501 9.7395,-3.89434 z" /><path
           id="path11"
           style="color:#000000;-inkscape-font-specification:'Comfortaa Bold';fill:#ffffff;fill-opacity:1;stroke-width:3.39083;-inkscape-stroke:none"
           d="m 3381.9438,152.44135 c -1.042,1.4e-4 -2.0669,0.42854 -2.8045,1.16581 l -5.1087,5.10615 -0.018,0.0196 c -0.6565,0.71075 -0.9746,1.68461 -0.9746,2.6634 0,1.042 0.3792,2.06864 1.0841,2.82361 l 0.031,0.0336 0.033,0.031 c 0.7554,0.70466 1.7822,1.08159 2.8246,1.08159 1.0213,0 2.0342,-0.39632 2.7528,-1.11466 l 5.038,-5.03639 -0.064,0.061 c 0.4267,-0.37331 0.7726,-0.85971 0.9555,-1.40818 0.1504,-0.45086 0.2249,-0.92575 0.2249,-1.40405 0,-1.04197 -0.3794,-2.06863 -1.0843,-2.8236 -0.7313,-0.78317 -1.8054,-1.19876 -2.8892,-1.19889 z m 145.1951,3.27112 c -1.2612,2.8e-4 -2.4717,0.5228 -3.3744,1.42523 -0.8795,0.8791 -1.3757,2.07855 -1.3757,3.32331 0,1.24477 0.4892,2.44353 1.3518,3.35121 l 0.023,0.0253 0.023,0.0233 c 0.908,0.86234 2.1069,1.34927 3.3522,1.34927 1.2454,0 2.4459,-0.49339 3.3254,-1.37252 0.903,-0.90265 1.4278,-2.11548 1.4278,-3.37654 0,-1.24915 -0.5286,-2.44644 -1.4319,-3.31763 -0.8714,-0.90286 -2.0708,-1.43062 -3.3202,-1.43091 h -6e-4 z m -55.3388,11.2143 c -2.2522,0 -4.335,0.54621 -6.1424,1.64589 -0.1906,0.11597 -0.3293,0.29188 -0.5115,0.41806 -0.1372,-0.21386 -0.2271,-0.45764 -0.4083,-0.63872 -0.7409,-0.74062 -1.7934,-1.11518 -2.8582,-1.11518 -1.0425,0 -2.0693,0.37952 -2.8246,1.08417 l -0.018,0.0155 -0.016,0.0155 c -0.741,0.74063 -1.1138,1.79227 -1.1137,2.85668 v 23.10245 c 0,1.04201 0.3771,2.06865 1.0821,2.82361 l 0.031,0.0331 0.033,0.0315 c 0.7553,0.70465 1.7827,1.08159 2.8252,1.08159 1.0648,0 2.1167,-0.3725 2.8576,-1.11311 l 0.016,-0.0176 0.016,-0.0155 c 0.705,-0.75496 1.0827,-1.7816 1.0827,-2.82361 v -13.31752 -1.32395 c 0,-1.67056 0.4624,-2.87087 1.4045,-3.86798 0.9461,-1.00132 2.0095,-1.45315 3.5047,-1.45315 1.4578,0 2.4503,0.39906 3.2721,1.2206 l 0.01,0.008 0.01,0.008 c 0.7408,0.71658 1.2077,1.91425 1.2077,3.8778 v 14.8487 c 0,1.04201 0.3771,2.06865 1.082,2.82361 l 0.031,0.0331 0.033,0.031 c 0.7552,0.70464 1.7821,1.08211 2.8246,1.08211 1.0649,0 2.1173,-0.37243 2.8582,-1.11311 l 0.016,-0.0176 0.016,-0.0155 c 0.7049,-0.75496 1.082,-1.7816 1.082,-2.82361 v -13.31753 -1.32394 c 0,-1.67471 0.456,-2.88124 1.3638,-3.87419 0.9439,-0.99502 2.0042,-1.44694 3.4949,-1.44694 1.4579,0 2.4482,0.39908 3.2701,1.2206 l 0.01,0.008 0.01,0.008 c 0.7408,0.71659 1.2072,1.91426 1.2072,3.8778 v 14.84819 c 0,1.04201 0.3791,2.06865 1.0841,2.82361 l 0.031,0.0336 0.033,0.031 c 0.7553,0.70463 1.7801,1.08159 2.8225,1.08159 1.065,0 2.1173,-0.37196 2.8583,-1.1126 l 0.016,-0.0181 0.016,-0.0155 c 0.7049,-0.75496 1.0841,-1.7816 1.0841,-2.82361 v -14.84819 c 0,-2.54239 -0.4642,-4.7834 -1.4454,-6.67246 -0.9323,-1.89434 -2.3047,-3.39908 -4.0556,-4.39352 -1.737,-0.98646 -3.7327,-1.4702 -5.8999,-1.4702 -2.4406,0 -4.6879,0.53325 -6.6616,1.61644 v 0.002 l -0.01,0.004 c -0.8718,0.48798 -1.6376,1.09803 -2.3446,1.76734 -0.6907,-0.76083 -1.482,-1.41025 -2.3792,-1.91978 -1.7369,-0.98647 -3.7328,-1.4702 -5.8999,-1.4702 z m -142.494,0.0507 c -2.9358,0 -5.6161,0.68173 -7.9433,2.05414 -2.3084,1.32712 -4.1546,3.21245 -5.472,5.5826 -1.3287,2.39086 -1.9849,5.12539 -1.9849,8.1194 0,2.9296 0.6591,5.62833 1.9849,8.01398 l 0.01,0.0119 0.01,0.01 c 1.3547,2.33221 3.2265,4.22257 5.5558,5.61206 l 0.012,0.006 0.01,0.008 c 2.3909,1.36564 5.1152,2.04276 8.0837,2.04276 4.0134,0 7.5176,-1.28974 10.2522,-3.83335 l 0.016,-0.0155 0.017,-0.0176 c 0.6946,-0.69427 1.1149,-1.70731 1.002,-2.6908 v -0.002 c -0.1106,-0.98993 -0.6729,-1.88271 -1.4516,-2.52698 -0.6836,-0.57545 -1.6207,-0.85272 -2.5099,-0.76326 -0.8898,0.059 -1.7342,0.43324 -2.4459,1.01131 v 0.002 c -0.6359,0.52008 -1.332,0.90192 -2.112,1.16374 -0.7386,0.22544 -1.6592,0.35348 -2.7642,0.35348 -1.6295,0 -2.9746,-0.35748 -4.1357,-1.05059 -1.191,-0.74598 -2.1053,-1.71591 -2.7972,-2.97398 -0.6505,-1.24514 -0.9886,-2.67521 -0.9886,-4.36045 0,-1.80267 0.3446,-3.29054 0.9922,-4.52635 0.6588,-1.25698 1.528,-2.17653 2.6686,-2.84892 l 0.01,-0.006 0.012,-0.006 c 1.1311,-0.69581 2.4228,-1.05059 3.9812,-1.05059 2.2135,0 3.9005,0.72342 5.3722,2.28462 l 0.014,0.0139 0.014,0.0134 c 0.6296,0.6293 1.3979,1.08806 2.2428,1.28674 l 0.037,0.008 0.037,0.008 c 0.8976,0.15835 1.8663,-0.06 2.6081,-0.58963 v -0.002 -0.002 c 0.8075,-0.58293 1.434,-1.38179 1.6568,-2.32752 0.2385,-1.01332 -0.1341,-2.11066 -0.8129,-2.88612 -1.4566,-1.67886 -3.1359,-2.96449 -5.0147,-3.80959 -1.8786,-0.87931 -3.9489,-1.31619 -6.1593,-1.31619 z m 47.4964,0 c -2.9979,0 -5.722,0.67748 -8.0838,2.04638 -2.3439,1.32431 -4.226,3.2065 -5.5811,5.57693 v 0.004 0.002 c -1.3347,2.36325 -1.9884,5.10086 -1.9884,8.12715 0,2.99399 0.6555,5.72647 1.9843,8.11733 l 0.01,0.0114 0.01,0.0119 c 1.3563,2.33487 3.2338,4.21136 5.5697,5.5671 l 0.01,0.004 0.01,0.004 c 2.3617,1.33259 5.0828,1.98746 8.0781,1.98746 2.9953,0 5.7164,-0.65486 8.0781,-1.98746 l 0.01,-0.004 0.01,-0.004 c 2.3386,-1.35728 4.2043,-3.23945 5.5268,-5.58106 v -0.006 -0.004 c 1.3288,-2.39085 1.9848,-5.12334 1.9848,-8.11733 0,-3.02713 -0.6759,-5.76678 -2.0454,-8.12922 -1.3208,-2.37094 -3.1862,-4.2593 -5.5289,-5.5826 -2.3587,-1.36711 -5.0671,-2.04432 -8.0325,-2.04432 z m 48.1745,0 c -1.9089,0 -3.7604,0.32293 -5.5284,0.96067 -1.8071,0.6171 -3.3504,1.60992 -4.5439,2.95846 -1.263,1.39231 -1.8986,3.22177 -1.8986,5.24309 0,2.34952 0.9862,4.48131 2.7817,6.07664 l 0.01,0.006 v 0.004 c 1.8722,1.62737 4.6234,2.69787 8.2481,3.4153 l 0.012,0.002 0.012,0.002 c 2.6102,0.4683 4.3347,1.12258 4.9915,1.62057 l 0.01,0.006 0.01,0.008 c 0.8018,0.58776 0.9865,1.00061 0.9669,1.58802 -0.02,0.5928 -0.2173,0.96153 -1.0316,1.46038 l -0.01,0.006 -0.01,0.004 c -0.7132,0.45148 -1.998,0.78134 -3.8618,0.78134 -1.4328,0 -2.6976,-0.24707 -3.8333,-0.72244 -1.1635,-0.53782 -1.9521,-1.09051 -2.3497,-1.53478 l -0.01,-0.0119 -0.01,-0.01 c -0.6691,-0.71642 -1.5876,-1.1769 -2.559,-1.28519 -1.0717,-0.15795 -2.1412,0.2469 -3.0144,0.94155 -0.8252,0.6359 -1.3886,1.58615 -1.5358,2.61637 v 0.0274 0.0274 c -0.1054,1.05273 0.2982,2.12945 1.0258,2.90524 l 0.016,0.016 0.016,0.0155 c 1.3175,1.31694 3.0806,2.35062 5.2509,3.15949 l 0.012,0.004 0.014,0.006 c 2.229,0.77979 4.6326,1.16374 7.1888,1.16374 2.5908,0 4.8218,-0.39659 6.6791,-1.26348 v -0.002 c 1.8357,-0.84146 3.3035,-2.02037 4.2881,-3.53208 1.0042,-1.48928 1.5219,-3.2119 1.5219,-5.04001 0,-1.59012 -0.3932,-3.0701 -1.1896,-4.33099 -0.818,-1.33048 -2.1079,-2.40232 -3.7703,-3.27267 v -0.002 c -1.6643,-0.88944 -3.8123,-1.56432 -6.4859,-2.0991 v -0.002 c -1.8167,-0.37007 -3.1748,-0.74206 -4.0148,-1.07021 -0.8082,-0.35014 -1.2355,-0.70581 -1.3612,-0.86713 -0.1681,-0.29912 -0.2619,-0.59238 -0.2619,-0.97048 0,-0.54393 0.098,-0.7337 0.8185,-1.09554 0.8518,-0.41091 1.9423,-0.64596 3.313,-0.64596 1.2112,0 2.2386,0.14469 3.0866,0.40773 0.789,0.24474 1.5412,0.69312 2.282,1.40404 l 0.01,0.008 0.01,0.006 c 0.7093,0.66176 1.6099,1.09212 2.5869,1.26968 1.0273,0.18671 2.1104,0.007 2.9595,-0.57619 l 0.023,-0.0155 0.021,-0.0155 c 0.7833,-0.58729 1.3524,-1.50328 1.4103,-2.48614 v -0.002 -0.002 c 0.054,-0.977 -0.3401,-1.93952 -0.9865,-2.68718 -1.1911,-1.46152 -2.7874,-2.59292 -4.7139,-3.38583 -1.9517,-0.80333 -4.1538,-1.19114 -6.5794,-1.19114 z m 143.3264,0 c -2.9357,0 -5.616,0.68173 -7.9432,2.05414 -2.3084,1.32712 -4.1546,3.21451 -5.472,5.58466 -1.3288,2.39085 -1.9849,5.12333 -1.9849,8.11734 0,2.9296 0.659,5.62833 1.9849,8.01398 l 0.01,0.0119 0.01,0.01 c 1.3547,2.33222 3.2284,4.22257 5.5578,5.61206 l 0.01,0.006 0.012,0.008 c 2.3909,1.36565 5.1152,2.04276 8.0838,2.04276 4.0133,0 7.5159,-1.28974 10.2506,-3.83335 l 0.018,-0.0155 0.016,-0.0176 c 0.6959,-0.69563 1.1172,-1.7112 1.0019,-2.69648 -0.1118,-0.98824 -0.6737,-1.88005 -1.4515,-2.52336 -0.6834,-0.5755 -1.6212,-0.85272 -2.5104,-0.76326 -0.8898,0.059 -1.7342,0.43319 -2.4459,1.01131 v 0.002 c -0.6361,0.52011 -1.3316,0.90192 -2.1115,1.16374 -0.7387,0.22544 -1.6578,0.35348 -2.7626,0.35348 -1.6313,0 -2.9774,-0.3581 -4.1393,-1.05266 -1.1899,-0.74579 -2.1043,-1.71467 -2.7957,-2.97191 -0.6505,-1.24515 -0.9886,-2.6752 -0.9886,-4.36045 0,-1.80268 0.3451,-3.29053 0.9927,-4.52635 0.6587,-1.25698 1.5279,-2.17653 2.6686,-2.84892 l 0.01,-0.006 0.012,-0.006 c 1.1311,-0.69581 2.4233,-1.05059 3.9816,-1.05059 2.2136,0 3.9007,0.72343 5.3724,2.28462 l 0.014,0.0139 0.014,0.0134 c 0.6296,0.62933 1.3978,1.08805 2.2427,1.28674 l 0.037,0.008 0.037,0.008 c 0.8976,0.15834 1.8657,-0.06 2.6076,-0.58963 v -0.002 -0.002 c 0.8075,-0.58295 1.4341,-1.38173 1.6567,-2.32752 0.2386,-1.01332 -0.1334,-2.11066 -0.8122,-2.88612 -1.4557,-1.67759 -3.1338,-2.96258 -5.0111,-3.80752 -1.8797,-0.88054 -3.9515,-1.31826 -6.1636,-1.31826 z m 47.4986,0 c -2.9963,0 -5.721,0.67687 -8.0818,2.04432 -2.345,1.32438 -4.2297,3.20775 -5.5852,5.57899 v 0.004 0.002 c -1.3347,2.36325 -1.989,5.10086 -1.989,8.12715 0,2.99399 0.656,5.72647 1.9849,8.11733 l 0.01,0.0114 0.01,0.0119 c 1.3563,2.33487 3.2339,4.21136 5.5697,5.5671 l 0.01,0.004 0.01,0.004 c 2.3616,1.3326 5.0828,1.98746 8.0781,1.98746 2.9953,0 5.7144,-0.65486 8.0759,-1.98746 l 0.01,-0.004 0.01,-0.004 c 2.3385,-1.35729 4.2022,-3.23946 5.5247,-5.58106 v -0.004 -0.006 c 1.3288,-2.39086 1.9829,-5.12333 1.9829,-8.11733 0,-3.02486 -0.6738,-5.76179 -2.0413,-8.12301 -1.3211,-2.37388 -3.1879,-4.26434 -5.5325,-5.58881 -2.3587,-1.3671 -5.0656,-2.04432 -8.031,-2.04432 z m -88.6626,0.20877 c -1.0422,1.2e-4 -2.0669,0.37759 -2.822,1.08211 l -0.018,0.0155 -0.016,0.0155 c -0.741,0.74063 -1.1158,1.79226 -1.1158,2.85668 v 23.10245 c 0,1.04201 0.3793,2.06865 1.0843,2.82361 l 0.031,0.0331 0.033,0.0315 c 0.7552,0.70463 1.7807,1.08365 2.8231,1.08365 1.0649,0 2.1167,-0.37456 2.8577,-1.11518 l 0.016,-0.0155 0.016,-0.0176 c 0.705,-0.75496 1.0843,-1.7816 1.0843,-2.82361 V 171.156 c 0,-1.06442 -0.3743,-2.11605 -1.1153,-2.85668 -0.7408,-0.7405 -1.7929,-1.11299 -2.8576,-1.11311 z m -150.3503,7.10964 h 0.013 c 1.5969,0 2.9304,0.35622 4.0985,1.05678 1.1778,0.70642 2.064,1.6609 2.7233,2.94866 l 0.01,0.0155 0.01,0.0155 c 0.6794,1.24035 1.0314,2.68202 1.0314,4.40128 0,1.71925 -0.352,3.16095 -1.0314,4.40128 l -0.01,0.0103 -0.01,0.0114 c -0.657,1.25355 -1.5442,2.19518 -2.729,2.90576 -1.1681,0.70056 -2.5016,1.05627 -4.0985,1.05627 -1.597,0 -2.9283,-0.35571 -4.0964,-1.05627 -1.1891,-0.71308 -2.1015,-1.66353 -2.7936,-2.92695 -0.6796,-1.24033 -1.0315,-2.68203 -1.0315,-4.40128 0,-1.71926 0.3519,-3.16145 1.0315,-4.4018 v -0.006 -0.006 c 0.6941,-1.2973 1.6037,-2.25731 2.7859,-2.96623 v -0.002 c 1.1681,-0.70056 2.4994,-1.05626 4.0964,-1.05626 z m 239.001,0 h 0.012 c 1.597,0 2.9283,0.35828 4.0964,1.05885 1.1778,0.70641 2.0641,1.65885 2.7232,2.94659 l 0.01,0.0155 0.01,0.0155 c 0.6795,1.24034 1.0314,2.68204 1.0314,4.40128 0,1.71924 -0.3519,3.16095 -1.0314,4.40128 l -0.01,0.0103 -0.01,0.0114 c -0.6568,1.25353 -1.5441,2.19518 -2.7289,2.90576 -1.1681,0.70056 -2.4994,1.05627 -4.0964,1.05627 -1.597,0 -2.9304,-0.3557 -4.0985,-1.05627 -1.189,-0.71308 -2.0995,-1.66352 -2.7916,-2.92695 -0.6797,-1.24033 -1.0337,-2.68204 -1.0336,-4.40128 0,-1.71924 0.3539,-3.16146 1.0336,-4.4018 v -0.006 -0.004 c 0.6942,-1.29733 1.6033,-2.25939 2.7854,-2.9683 1.1681,-0.70059 2.5015,-1.05833 4.0985,-1.05833 z" /></g><path
         id="path12"
         style="display:inline;fill:#ffffff;fill-opacity:1;stroke:none;stroke-width:1.79428"
         d="m 51.35801,144.7199 c -8.7249,2.50942 -16.9903,8.16581 -22.7182,18.08667 -10.9637,18.98968 -4.4572,43.27211 14.5325,54.2358 22.6758,13.09187 45.6936,0.26302 54.23573,-14.53243 4.0201,-6.9629 1.6344,-15.86635 -5.3285,-19.88638 -6.96283,-4.02005 -15.86633,-1.63436 -19.88643,5.32854 -2.9236,5.0639 -9.399,6.799 -14.463,3.87535 -5.0639,-2.92364 -6.799,-9.39912 -3.8753,-14.46305 2.9236,-5.06392 9.3991,-6.79902 14.463,-3.87535 6.9629,4.02002 15.8664,1.63433 19.8863,-5.32854 4.02013,-6.96289 1.6344,-15.86636 -5.3285,-19.88637 -8.3221,-4.80482 -20.2999,-6.78067 -31.5176,-3.55424 z m -1.9221,89.51498 c -8.4744,2.2707 -15.5345,7.0573 -20.6177,13.40707 -2.265,2.82949 -4.1269,5.96697 -5.5364,9.34897 -1.0862,2.60608 -1.8996,5.34722 -2.4188,8.19794 -1.0163,5.58079 -0.9385,11.54626 0.5096,17.65309 1.6588,5.54309 4.0463,10.82828 6.9794,15.77664 -3.4854,0.61639 -6.8856,1.18237 -10.1889,1.69594 -32.3058,4.7907 -52.3921,3.99773 -54.0377,-2.13326 -1.643,-6.13189 15.3578,-16.86253 45.7319,-28.86697 0.1416,-2.74815 0.5085,-5.47998 1.0972,-8.16805 -54.5688,19.10077 -87.7226,37.51695 -85.1643,47.3069 2.6807,9.75695 40.6001,9.12888 97.4073,-1.61353 3.0802,-0.5959 6.1977,-1.21783 9.3479,-1.86492 14.1201,-2.84058 28.8668,-6.18573 43.8069,-9.93722 5.2199,-1.29161 10.4569,-2.63128 15.69173,-4.01413 5.225,-1.4198 10.4301,-2.87808 15.5964,-4.36951 14.8143,-4.22118 29.2578,-8.6975 42.9065,-13.29754 3.0517,-1.0147 6.0625,-2.03485 9.028,-3.0589 54.5676,-19.10039 87.7212,-37.51627 85.164,-47.3063 -2.6336,-9.76309 -40.4685,-9.15742 -97.2071,1.55618 1.9004,2.03313 3.6289,4.22055 5.1672,6.53976 32.1068,-4.73539 52.0531,-3.92724 53.7048,2.17595 1.6429,6.13168 -15.3585,16.86227 -45.7315,28.86634 -3.1175,1.20685 -6.3451,2.41681 -9.6717,3.62566 0.066,-5.75193 -0.5092,-11.52272 -1.8441,-17.15265 -1.5999,-5.97094 -4.5127,-11.22435 -8.2979,-15.61006 -1.893,-2.1934 -3.9982,-4.16853 -6.2975,-5.88437 -2.9214,-2.18015 -6.1304,-3.94027 -9.536,-5.25039 -7.5579,-2.90752 -16.0552,-3.57474 -24.4756,-1.31849 -3.844,1.04407 -7.4761,2.65123 -10.79033,4.74445 -1.8518,1.16963 -3.8952,2.21728 -6.0405,3.15078 -4.8161,2.09566 -10.1921,3.5558 -15.4159,4.17458 -2.4065,0.28501 -4.7799,0.40108 -7.0433,0.31114 -3.9532,-0.15712 -7.9391,0.27663 -11.8236,1.31492 z m -11.5727,76.99103 c 3.8836,4.09936 8.2307,7.75177 13.0152,10.77712 14.2977,9.04114 32.2254,12.72634 51.50603,7.61106 19.255,-5.21029 32.9383,-17.36569 40.7999,-32.34435 2.6308,-5.01244 4.5698,-10.3488 5.8834,-15.84099 -14.393,4.59297 -29.3007,9.03156 -44.429,13.22827 -3.5938,1.01793 -7.1999,2.02197 -10.8142,3.01109 -3.62453,0.95047 -7.24953,1.884 -10.87063,2.79935 -15.1999,3.92972 -30.3296,7.53959 -45.0907,10.75845 z" /></g></g></svg>
