<?xml version="1.0" encoding="UTF-8" standalone="no"?>
<!-- Created with Inkscape (http://www.inkscape.org/) -->

<svg
   width="457.80258"
   height="511.99542"
   viewBox="0 0 457.80258 511.99542"
   version="1.1"
   id="svg1"
   xml:space="preserve"
   xmlns="http://www.w3.org/2000/svg"
   xmlns:svg="http://www.w3.org/2000/svg"><defs
     id="defs1" /><g
     id="layer1"
     transform="translate(659.82141,1250.0177)"><path
       style="stroke-width:1; fill:#ffffff"
       d="m -250.36124,-738.49534 c -7.749,-1.48036 -13.8005,-4.34036 -19.7579,-9.33764 -1.3483,-1.131 -28.9942,-34.079 -62.0171,-73.9112 -32.7714,-39.5288 -59.8513,-71.9729 -60.1776,-72.0982 -0.3263,-0.1252 -3.2194,0.9044 -6.4291,2.2881 -33.8321,14.584 -69.4391,18.8257 -106.2577,12.6579 -20.2531,-3.3927 -41.9055,-11.1791 -60.7359,-21.841 -6.2701,-3.5502 -17.5825,-11.2722 -24.0363,-16.4076 -7.5903,-6.0398 -22.534,-20.9069 -28.4781,-28.3322 -11.7848,-14.7214 -21.2686,-30.8961 -28.1866,-48.0726 -3.4267,-8.50812 -6.7724,-18.93992 -6.2319,-19.43082 0.9238,-0.839 82.2449,-11.5064 82.8794,-10.8719 0.096,0.096 1.592,3.0388 3.3247,6.5397 13.7818,27.84672 39.2063,48.09322 69.4082,55.27252 14.8295,3.5251 33.1872,3.5267 48.0684,0 10.9815,-2.5996 23.3541,-7.8487 32.5062,-13.7909 19.8808,-12.9082 34.9399,-32.46572 42.3776,-55.03612 l 2.1875,-6.6386 6.1032,-0.2829 c 3.3567,-0.1555 22.3515,-0.4468 42.2105,-0.6472 l 36.1074,-0.3644 -0.3108,2.0207 c -2.3317,15.1631 -4.3313,23.4011 -8.8039,36.2698 -6.0069,17.28362 -15.745,35.30372 -27.382,50.67012 l -3.3511,4.425 58.3981,70.2444 c 32.119,38.6344 59.3855,71.7465 60.5923,73.5825 2.4518,3.7304 4.7626,9.3156 5.7174,13.8193 0.8296,3.9135 0.822,12.4165 -0.015,16.3489 -3.3936,15.9492 -14.9367,28.24736 -30.2398,32.2182 -4.7232,1.22558 -12.9911,1.55788 -17.4703,0.70214 z m -409.4531,-325.52576 c 0.011,-6.431 0.8163,-17.1915 1.8529,-24.7582 6.9877,-51.0038 34.7597,-96.6374 77.3009,-127.0174 20.9625,-14.9698 45.7539,-25.6378 71.2377,-30.6543 36.6356,-7.2117 74.6348,-3.4265 108.4635,10.8042 46.7197,19.6536 83.4751,57.1301 102.0576,104.06 7.278,18.3803 11.2121,36.1954 12.8245,58.074 l 0.1804,2.4473 -3.9431,-0.2788 c -8.1907,-0.5791 -62.232,-2.0838 -75.23,-2.0947 h -3.5274 l -0.2539,-1.7169 c -1.8492,-12.5073 -5.0277,-23.0239 -10.0669,-33.3075 -5.3316,-10.8804 -11.071,-18.9761 -19.6045,-27.653 -20.6855,-21.033 -48.5379,-32.122 -77.9362,-31.0288 -52.3255,1.9456 -94.9958,42.2314 -100.1011,94.5074 -0.4471,4.5775 -0.6808,5.6085 -1.2719,5.6087 -1.6516,5e-4 -76.4673,6.5016 -80.7305,7.0149 l -1.2591,0.1516 z"
       id="path4" /></g></svg>
